<svg width="1440" height="4482" viewBox="0 0 1440 4482" fill="none" xmlns="http://www.w3.org/2000/svg">
<path d="M1.01863e-10 584.2C238.996 605.761 477.993 605.255 716.99 582.681C901.29 565.274 1085.59 534.744 1269.89 504.214C1326.59 494.82 1383.3 485.427 1440 476.416V4482H0L1.01863e-10 584.2Z" fill="#FFA600"/>
<g opacity="0.2">
<path d="M3.19537 584.036C105.447 593.341 207.699 598.578 309.951 599.748V757.777C310.181 782.383 304.365 806.669 293.012 828.5C281.66 850.332 265.119 869.041 244.844 882.984L0 1052.24V681.429L3.19537 679.21V584.036Z" fill="white"/>
<path d="M30.8743 2067.27C20.5745 2067.91 10.2774 2068.19 0 2068.14V1761.74C3.86126 1761.8 7.73186 1761.71 11.6037 1761.47C39.3485 1759.77 66.0991 1750.51 88.9618 1734.7L972.294 1123.69C977.871 1119.88 984.394 1117.68 991.143 1117.34C997.891 1117.01 1004.6 1118.54 1010.53 1121.78C1016.46 1125.02 1021.38 1129.84 1024.74 1135.7C1028.1 1141.56 1029.77 1148.24 1029.58 1154.99V1377.55C1029.7 1402.14 1023.83 1426.38 1012.49 1448.2C1001.15 1470.01 984.666 1488.74 964.468 1502.76L263.938 1986.37C195.099 2034.12 114.494 2062.1 30.8743 2067.27Z" fill="white"/>
<path d="M12.9973 3432.68C8.4368 3425.13 4.10338 3417.45 0 3409.68V2633.77C3.05734 2627.37 6.24318 2621.04 9.55652 2614.75C50.2681 2537.58 109.024 2471.39 180.824 2421.81L406.195 2265.31V2158.25C406.073 2133.67 411.937 2109.42 423.28 2087.61C434.623 2065.79 451.105 2047.07 471.303 2033.05L655.356 1904.71C660.935 1900.81 667.491 1898.54 674.289 1898.15C681.087 1897.77 687.857 1899.29 693.839 1902.54C699.821 1905.79 704.779 1910.65 708.155 1916.56C711.531 1922.47 713.192 1929.21 712.951 1936.01V2343.87C713.181 2368.48 707.365 2392.76 696.012 2414.6C684.66 2436.43 668.119 2455.14 647.844 2469.08L385.223 2650.63C344.557 2678.56 311.268 2715.93 288.208 2759.54C265.148 2803.16 253.005 2851.71 252.817 2901.04V3195.59C252.849 3223.39 260.48 3250.65 274.886 3274.42C289.292 3298.19 309.924 3317.57 334.55 3330.47C359.176 3343.36 386.859 3349.27 414.604 3347.57C442.349 3345.87 469.099 3336.61 491.962 3320.8L1375.29 2709.79C1380.87 2705.97 1387.39 2703.78 1394.14 2703.44C1400.89 2703.1 1407.6 2704.64 1413.53 2707.88C1419.46 2711.12 1424.38 2715.94 1427.74 2721.8C1431.1 2727.66 1432.77 2734.34 1432.58 2741.09V2963.65C1432.7 2988.23 1426.83 3012.48 1415.49 3034.29C1404.15 3056.11 1387.67 3074.83 1367.47 3088.85L666.938 3572.46C598.099 3620.21 517.494 3648.19 433.874 3653.36C350.255 3658.54 266.816 3640.7 192.618 3601.8C118.42 3562.89 56.2982 3504.4 12.9973 3432.68Z" fill="white"/>
<path d="M1334.96 669.692C1373.55 689.893 1408.88 715.389 1440 745.29V1769.62C1412.31 1800.05 1381.15 1827.34 1347.04 1850.88L1122.29 2007.39V2113.19C1122.44 2137.78 1116.59 2162.04 1105.24 2183.86C1093.9 2205.67 1077.4 2224.4 1057.18 2238.4L872.816 2365.48C867.238 2369.38 860.681 2371.65 853.884 2372.04C847.086 2372.42 840.316 2370.9 834.334 2367.65C828.351 2364.4 823.394 2359.55 820.018 2353.63C816.642 2347.72 814.981 2340.98 815.221 2334.18V1925.69C815.046 1901.1 820.886 1876.83 832.234 1855.01C843.581 1833.19 860.093 1814.47 880.329 1800.49L907.248 1782.02L1142.01 1619.88C1182.56 1591.88 1215.73 1554.47 1238.68 1510.87C1261.63 1467.26 1273.67 1418.74 1273.79 1369.46V1076.48C1273.76 1048.68 1266.13 1021.42 1251.72 997.651C1237.32 973.878 1216.68 954.497 1192.06 941.604C1167.43 928.71 1139.75 922.796 1112 924.501C1084.26 926.205 1057.51 935.464 1034.65 951.274L151.314 1562.59C145.71 1566.38 139.174 1568.55 132.42 1568.87C125.666 1569.2 118.952 1567.66 113.011 1564.43C107.07 1561.2 102.129 1556.41 98.7274 1550.56C95.3256 1544.72 93.5932 1538.05 93.7191 1531.29V1308.74C93.6051 1284.12 99.5051 1259.85 110.906 1238.02C122.307 1216.2 138.865 1197.5 159.139 1183.53L860.296 699.609C929.117 651.701 1009.76 623.579 1093.45 618.305C1177.13 613.03 1260.67 630.803 1334.96 669.692Z" fill="white"/>
<path d="M1440 2211.49C1376.74 2223.47 1316.49 2248.68 1263.3 2285.7L562.139 2769.63C541.865 2783.59 525.307 2802.3 513.906 2824.12C502.505 2845.94 496.605 2870.22 496.719 2894.83V3117.39C496.593 3124.15 498.326 3130.82 501.727 3136.66C505.129 3142.5 510.07 3147.3 516.011 3150.53C521.952 3153.76 528.666 3155.29 535.42 3154.97C542.174 3154.65 548.71 3152.47 554.314 3148.69L1437.65 2537.37C1437.87 2537.21 1438.1 2537.06 1438.33 2536.9C1438.62 2536.7 1438.92 2536.5 1439.21 2536.3L1439.55 2536.08C1439.7 2535.97 1439.85 2535.87 1440 2535.77V2211.49Z" fill="white"/>
<path d="M1440 3278.5L1310.25 3368.11L1283.33 3386.58C1263.09 3400.56 1246.58 3419.28 1235.23 3441.1C1223.89 3462.93 1218.05 3487.19 1218.22 3511.79V3920.28C1217.98 3927.08 1219.64 3933.82 1223.02 3939.73C1226.39 3945.64 1231.35 3950.5 1237.33 3953.75C1243.32 3957 1250.09 3958.52 1256.88 3958.13C1263.68 3957.75 1270.24 3955.48 1275.82 3951.58L1440 3838.4V3278.5Z" fill="white"/>
</g>
</svg>
