<svg width="157" height="36" viewBox="0 0 157 36" fill="none" xmlns="http://www.w3.org/2000/svg">
<path d="M25.8638 18.5476V14.6737C25.8672 14.5561 25.8381 14.4399 25.7795 14.3379C25.721 14.2358 25.6354 14.152 25.5322 14.0956C25.429 14.0392 25.3121 14.0124 25.1947 14.0183C25.0772 14.0242 24.9636 14.0624 24.8665 14.1288L9.48775 24.7644C9.08971 25.0396 8.62398 25.2007 8.14095 25.2304C7.65791 25.2601 7.17596 25.1571 6.74722 24.9327C6.31848 24.7083 5.95928 24.3709 5.70847 23.9571C5.45767 23.5433 5.32481 23.0688 5.32426 22.585V17.4579C5.32752 16.5991 5.53894 15.754 5.94041 14.9949C6.34189 14.2357 6.92144 13.5852 7.62944 13.099L12.2016 9.93888C12.5546 9.69618 12.8426 9.37052 13.0403 8.99051C13.2379 8.61049 13.3392 8.18776 13.3352 7.75946V4.14163V0.660007C13.3393 0.541566 13.3104 0.424304 13.2517 0.321385C13.1929 0.218466 13.1066 0.133967 13.0024 0.0773746C12.8983 0.0207824 12.7804 -0.00566165 12.6621 0.00101156C12.5437 0.00768476 12.4296 0.047211 12.3324 0.115152L9.12807 2.34906C8.77643 2.5931 8.48949 2.91905 8.292 3.29875C8.09452 3.67845 7.99243 4.10051 7.99456 4.52847V6.39188L4.07085 9.11615C2.82083 9.97911 1.79789 11.1313 1.0891 12.4746C0.38032 13.8179 0.00668491 15.3125 9.47813e-06 16.8313V22.5741C-0.0022377 24.0324 0.395144 25.4634 1.14901 26.7119C1.90287 27.9603 2.98441 28.9784 4.27619 29.6556C5.56798 30.3328 7.02064 30.6433 8.47645 30.5532C9.93226 30.4632 11.3356 29.9762 12.5341 29.145L24.7303 20.727C25.0819 20.483 25.3688 20.157 25.5663 19.7773C25.7638 19.3976 25.8659 18.9755 25.8638 18.5476Z" fill="#FFA600"/>
<path d="M21.3243 6.88771L9.11719 15.3112C8.76421 15.5543 8.47595 15.8799 8.27746 16.2597C8.07896 16.6395 7.97625 17.062 7.97823 17.4906V21.3645C7.97604 21.4822 8.0062 21.5982 8.06542 21.6999C8.12465 21.8016 8.21067 21.8852 8.3141 21.9414C8.41754 21.9976 8.53442 22.0243 8.65201 22.0187C8.7696 22.013 8.88338 21.9752 8.98095 21.9094L24.3597 11.2683C24.7577 10.9931 25.2235 10.832 25.7065 10.8023C26.1895 10.7726 26.6715 10.8756 27.1002 11.1C27.529 11.3244 27.8882 11.6618 28.139 12.0756C28.3898 12.4894 28.5226 12.9639 28.5232 13.4478V18.5476C28.5212 19.4054 28.3114 20.2499 27.9119 21.0089C27.5123 21.768 26.9349 22.4191 26.2289 22.9064L22.1417 25.7288L21.6731 26.0502C21.3207 26.2936 21.0333 26.6194 20.8357 26.9993C20.6382 27.3791 20.5365 27.8015 20.5395 28.2297V29.2159V35.34C20.5353 35.4585 20.5643 35.5757 20.623 35.6786C20.6818 35.7816 20.7681 35.8661 20.8723 35.9226C20.9764 35.9792 21.0943 36.0057 21.2126 35.999C21.331 35.9923 21.4451 35.9528 21.5423 35.8849L24.7521 33.6728C25.104 33.4291 25.3912 33.1032 25.5888 32.7234C25.7863 32.3436 25.8882 31.9214 25.8856 31.4933V29.6517L29.7984 26.9275C31.054 26.0612 32.0805 24.903 32.7896 23.5525C33.4987 22.2019 33.8692 20.6995 33.8692 19.1742V13.4532C33.8719 11.9936 33.4742 10.5612 32.7193 9.3118C31.9645 8.06241 30.8815 7.04387 29.5881 6.36695C28.2947 5.69003 26.8404 5.38066 25.3834 5.47248C23.9264 5.56429 22.5224 6.05378 21.3243 6.88771Z" fill="#B3CB2D"/>
<path d="M53.9632 8.47563C48.6847 8.47563 44.4575 12.3178 44.4575 17.9833C44.4575 23.6487 48.6847 27.5189 53.9912 27.5189C55.4496 27.5717 56.8965 27.2429 58.189 26.5652C59.4815 25.8874 60.5748 24.8841 61.3609 23.6543C61.3836 23.6196 61.3987 23.5806 61.4053 23.5397C61.4119 23.4988 61.4098 23.457 61.3993 23.417C61.3888 23.3769 61.37 23.3395 61.3441 23.3072C61.3182 23.2749 61.2859 23.2483 61.2491 23.2293L59.0125 22.1107C58.9488 22.0771 58.8749 22.0689 58.8054 22.0875C58.7359 22.1062 58.6761 22.1504 58.6378 22.2114C58.1299 22.9762 57.4385 23.6015 56.6269 24.0304C55.8152 24.4593 54.9091 24.678 53.9912 24.6666C50.4852 24.6666 47.7397 21.8535 47.7397 17.9889C47.7397 14.1243 50.4461 11.3279 53.9576 11.3279C54.8751 11.3222 55.7798 11.5439 56.5906 11.9734C57.4015 12.4028 58.0933 13.0265 58.6043 13.7887C58.6434 13.8487 58.7032 13.8921 58.7724 13.9107C58.8415 13.9293 58.915 13.9217 58.9789 13.8894L61.2156 12.7708C61.2528 12.7531 61.2857 12.7274 61.3121 12.6957C61.3385 12.6639 61.3576 12.6268 61.3683 12.5869C61.3789 12.5471 61.3808 12.5053 61.3737 12.4647C61.3666 12.424 61.3508 12.3854 61.3274 12.3514C60.5431 11.1204 59.4513 10.1154 58.1598 9.43565C56.8682 8.75592 55.4218 8.42502 53.9632 8.47563Z" fill="#191715"/>
<path fill-rule="evenodd" clip-rule="evenodd" d="M70.2383 27.1006C70.9817 26.7959 71.6516 26.3359 72.2031 25.7516V26.9876C72.2031 27.035 72.222 27.0806 72.2555 27.1141C72.2891 27.1477 72.3346 27.1665 72.3821 27.1665H74.9207C74.9686 27.1666 75.0147 27.1479 75.0492 27.1145C75.0837 27.0811 75.1037 27.0356 75.1052 26.9876V18.3188C75.1052 14.7283 72.5051 13.4811 69.5471 13.4811C67.5241 13.4423 65.5625 14.1763 64.0617 15.5337C64.0262 15.564 64.0028 15.6061 63.9956 15.6523C63.9884 15.6984 63.998 15.7456 64.0226 15.7853L65.0011 17.4631C65.0165 17.4886 65.0373 17.5103 65.0621 17.5267C65.0868 17.5431 65.1149 17.5538 65.1443 17.5581C65.1737 17.5624 65.2037 17.5601 65.2321 17.5514C65.2605 17.5427 65.2867 17.5279 65.3086 17.5079C66.3205 16.5325 67.6721 15.989 69.0774 15.9923C70.9282 15.9923 72.2031 16.9318 72.2031 18.481V20.3993C72.2005 20.4053 72.1962 20.4104 72.1908 20.414C72.1853 20.4176 72.1789 20.4195 72.1724 20.4195C72.1705 20.4195 72.1686 20.4193 72.1668 20.419C72.1651 20.4187 72.1634 20.4183 72.1618 20.4178C72.1591 20.4169 72.1564 20.4156 72.154 20.414C72.1485 20.4104 72.1442 20.4053 72.1416 20.3993C71.5884 19.8422 70.924 19.4079 70.1918 19.1246C69.4597 18.8413 68.676 18.7154 67.892 18.7551C65.7056 18.7551 63.2509 20.0302 63.2509 23.095C63.2509 26.0536 65.7056 27.5189 67.892 27.5189C68.6949 27.548 69.4948 27.4054 70.2383 27.1006ZM72.1248 22.5078C72.1764 22.6101 72.2032 22.7232 72.2031 22.8378V23.7718C72.2028 23.9169 72.1601 24.0589 72.0801 24.18C71.7019 24.6176 71.2315 24.9659 70.7026 25.2C70.1738 25.434 69.5996 25.5479 69.0215 25.5335C67.3943 25.5335 66.1753 24.6218 66.1753 23.1566C66.1753 21.6913 67.3943 20.7517 69.0215 20.7517C69.6464 20.7514 70.2606 20.913 70.8045 21.2208C71.3483 21.5285 71.8032 21.9719 72.1248 22.5078Z" fill="#191715"/>
<path d="M79.4387 24.1073V16.3782H77.4257C77.3747 16.3782 77.3258 16.3583 77.2893 16.3228C77.2527 16.2873 77.2315 16.2389 77.23 16.188V14.0404C77.23 14.0147 77.2351 13.9892 77.2449 13.9655C77.2547 13.9417 77.2691 13.9202 77.2873 13.902C77.3055 13.8838 77.3271 13.8694 77.3508 13.8595C77.3746 13.8497 77.4 13.8446 77.4257 13.8446H79.4387V10.3548C79.4387 10.3327 79.443 10.3109 79.4515 10.2906C79.4599 10.2702 79.4722 10.2517 79.4878 10.2361C79.5034 10.2206 79.5219 10.2082 79.5422 10.1998C79.5626 10.1913 79.5844 10.187 79.6064 10.187H82.1786C82.2004 10.187 82.2219 10.1914 82.242 10.1999C82.262 10.2083 82.2801 10.2208 82.2953 10.2365C82.3104 10.2521 82.3222 10.2707 82.33 10.291C82.3379 10.3113 82.3415 10.333 82.3407 10.3548V13.839H84.857C84.9089 13.839 84.9587 13.8597 84.9954 13.8964C85.0321 13.9331 85.0527 13.9829 85.0527 14.0348V16.188C85.0512 16.2389 85.03 16.2873 84.9934 16.3228C84.9569 16.3583 84.9079 16.3782 84.857 16.3782H82.3575V23.3747C82.3575 24.2863 82.7993 24.9462 83.6324 24.9462C84.0462 24.9506 84.4516 24.8297 84.7955 24.5995C84.8108 24.5878 84.8287 24.5799 84.8477 24.5764C84.8666 24.5729 84.8862 24.5739 84.9047 24.5794C84.9232 24.5848 84.9401 24.5945 84.9542 24.6077C84.9682 24.6209 84.979 24.6373 84.9856 24.6554L85.5951 26.5905C85.6035 26.6119 85.6049 26.6354 85.5988 26.6576C85.5928 26.6798 85.5797 26.6994 85.5615 26.7135C84.7984 27.3027 83.8446 27.5895 82.8831 27.5189C80.6297 27.5189 79.4387 26.3053 79.4387 24.1073Z" fill="#191715"/>
<path fill-rule="evenodd" clip-rule="evenodd" d="M100.195 20.7517C100.195 16.5515 97.6227 13.4811 93.619 13.4811C89.6658 13.4811 86.8308 16.6298 86.87 20.4497C86.87 24.6722 89.8559 27.4686 93.8595 27.4686C95.804 27.5353 97.7038 26.8754 99.1883 25.6174C99.2092 25.5922 99.2207 25.5606 99.2207 25.5279C99.2207 25.4952 99.2092 25.4635 99.1883 25.4384L98.0196 23.7606C98.0065 23.7462 97.9906 23.7346 97.9728 23.7268C97.955 23.7189 97.9357 23.7148 97.9162 23.7148C97.8967 23.7148 97.8775 23.7189 97.8596 23.7268C97.8418 23.7346 97.8259 23.7462 97.8128 23.7606C96.7887 24.6323 95.4894 25.1137 94.1447 25.1196C93.1193 25.1784 92.11 24.8446 91.3217 24.186C90.5335 23.5274 90.0254 22.5935 89.9006 21.5738C89.8991 21.5579 89.9008 21.5419 89.9057 21.5267C89.9105 21.5115 89.9184 21.4975 89.9289 21.4855C89.9393 21.4734 89.9521 21.4636 89.9665 21.4567C89.9809 21.4498 89.9965 21.4459 90.0124 21.4452H99.9655C100.026 21.4438 100.083 21.4191 100.126 21.3764C100.169 21.3337 100.193 21.2762 100.195 21.2159V20.7517ZM97.1921 19.3982H90.0516V19.4206C90.0263 19.4209 90.0012 19.4157 89.9781 19.4053C89.955 19.3949 89.9345 19.3796 89.918 19.3604C89.9014 19.3412 89.8893 19.3186 89.8825 19.2942C89.8756 19.2699 89.8742 19.2443 89.8782 19.2193C89.9564 18.2883 90.3872 17.4224 91.0826 16.7986C91.7779 16.1749 92.6853 15.8404 93.619 15.8636C94.5604 15.8133 95.4832 16.1382 96.1855 16.7672C96.8877 17.3962 97.312 18.2779 97.3654 19.2193C97.3662 19.2425 97.3622 19.2657 97.3539 19.2873C97.3455 19.309 97.3329 19.3288 97.3167 19.3455C97.3005 19.3622 97.2811 19.3755 97.2597 19.3845C97.2383 19.3936 97.2153 19.3983 97.1921 19.3982Z" fill="#191715"/>
<path d="M112.077 18.839C112.077 16.7697 111.026 16.0762 109.393 16.0762C108.74 16.0958 108.1 16.2611 107.52 16.5601C106.939 16.8592 106.433 17.2843 106.038 17.8043C106.005 17.8498 105.987 17.9047 105.988 17.9609V27.0267C105.988 27.0697 105.971 27.111 105.94 27.1414C105.91 27.1718 105.869 27.1889 105.826 27.1889H103.242C103.2 27.1875 103.16 27.1697 103.131 27.1395C103.102 27.1092 103.086 27.0688 103.086 27.0267V13.9957C103.087 13.9546 103.104 13.9155 103.133 13.8865C103.162 13.8574 103.201 13.8405 103.242 13.8391H105.826C105.868 13.839 105.908 13.8554 105.938 13.8846C105.969 13.9138 105.986 13.9536 105.988 13.9957V15.556C105.991 15.5618 105.996 15.5666 106.002 15.5699C106.008 15.5733 106.015 15.575 106.021 15.575C106.028 15.575 106.035 15.5733 106.041 15.5699C106.044 15.568 106.047 15.5656 106.05 15.5628C106.052 15.5607 106.053 15.5585 106.055 15.556C106.64 14.9121 107.352 14.3956 108.146 14.0386C108.939 13.6816 109.798 13.4919 110.668 13.4811C113.542 13.4811 114.979 15.0303 114.979 17.7652V27.0267C114.979 27.0697 114.962 27.111 114.932 27.1414C114.901 27.1718 114.86 27.1889 114.817 27.1889H112.234C112.192 27.1875 112.152 27.1697 112.123 27.1395C112.093 27.1092 112.077 27.0688 112.077 27.0267V18.839Z" fill="#191715"/>
<path d="M138.833 19.2528H132.816C132.731 19.2543 132.65 19.2891 132.591 19.3498C132.531 19.4105 132.498 19.4921 132.498 19.5772V21.4228C132.499 21.5069 132.533 21.5872 132.593 21.6466C132.652 21.7061 132.732 21.7402 132.816 21.7416H138.833C138.918 21.7416 139 21.7082 139.06 21.6486C139.121 21.5889 139.156 21.5079 139.157 21.4228V19.5772C139.157 19.5346 139.149 19.4924 139.133 19.4531C139.116 19.4137 139.092 19.378 139.062 19.3478C139.032 19.3177 138.996 19.2938 138.957 19.2775C138.918 19.2612 138.876 19.2528 138.833 19.2528Z" fill="#191715"/>
<path d="M147.78 20.0694L142.747 27.1106C142.731 27.1347 142.71 27.1545 142.684 27.1682C142.659 27.1819 142.631 27.189 142.602 27.1889H139.185C139.151 27.1889 139.118 27.1797 139.089 27.1621C139.06 27.1446 139.037 27.1194 139.021 27.0894C139.006 27.0594 138.999 27.0257 139.001 26.9919C139.003 26.9582 139.015 26.9257 139.034 26.8981L145.666 17.7875C145.676 17.7718 145.682 17.7533 145.682 17.7344C145.682 17.7155 145.676 17.697 145.666 17.6813L139.42 9.04049C139.4 9.01336 139.388 8.98112 139.386 8.94748C139.383 8.91383 139.39 8.88016 139.406 8.85035C139.422 8.82053 139.445 8.79578 139.475 8.77896C139.504 8.76214 139.537 8.75392 139.571 8.75526H142.988C143.016 8.75547 143.043 8.76213 143.069 8.77474C143.094 8.78734 143.116 8.80555 143.133 8.82796L147.78 15.4218C147.787 15.4333 147.798 15.4428 147.81 15.4493C147.822 15.4559 147.836 15.4593 147.849 15.4593C147.863 15.4593 147.877 15.4559 147.889 15.4493C147.901 15.4428 147.912 15.4333 147.919 15.4218L152.521 8.82796C152.539 8.80511 152.562 8.78668 152.588 8.77408C152.614 8.76147 152.643 8.75504 152.672 8.75526H156.117C156.15 8.755 156.183 8.76399 156.211 8.78125C156.239 8.7985 156.262 8.82332 156.277 8.85293C156.293 8.88255 156.299 8.91578 156.296 8.9489C156.294 8.98203 156.282 9.01374 156.262 9.04049L150.016 17.6589C150.005 17.6734 149.999 17.6911 149.999 17.7092C149.999 17.7274 150.005 17.745 150.016 17.7596L156.659 26.9037C156.678 26.9309 156.69 26.9629 156.692 26.9962C156.695 27.0294 156.688 27.0627 156.673 27.0926C156.658 27.1224 156.636 27.1476 156.608 27.1656C156.579 27.1835 156.547 27.1935 156.514 27.1945H153.092C153.063 27.1946 153.034 27.1875 153.009 27.1738C152.984 27.1601 152.962 27.1403 152.946 27.1162L147.914 20.075C147.906 20.0651 147.896 20.057 147.884 20.0513C147.873 20.0456 147.861 20.0424 147.848 20.0418C147.835 20.0413 147.823 20.0435 147.811 20.0482C147.799 20.053 147.788 20.0602 147.78 20.0694Z" fill="#191715"/>
<path fill-rule="evenodd" clip-rule="evenodd" d="M124.959 27.0856C125.7 26.7798 126.368 26.3193 126.917 25.7348L126.912 26.9932C126.912 27.0406 126.93 27.0862 126.964 27.1197C126.998 27.1533 127.043 27.1721 127.091 27.1721H129.635C129.682 27.1721 129.728 27.1533 129.761 27.1197C129.795 27.0862 129.814 27.0406 129.814 26.9932V18.3188C129.814 14.7227 127.219 13.4811 124.261 13.4811C122.245 13.4379 120.288 14.1638 118.787 15.5113C118.752 15.5432 118.729 15.5862 118.722 15.633C118.715 15.6798 118.724 15.7277 118.748 15.7685L119.726 17.4464C119.741 17.4726 119.761 17.4951 119.786 17.5122C119.811 17.5292 119.839 17.5404 119.869 17.5447C119.899 17.549 119.929 17.5464 119.958 17.5371C119.986 17.5278 120.012 17.5121 120.034 17.4911C121.047 16.5182 122.398 15.9769 123.803 15.9811C125.653 15.9811 126.928 16.9207 126.928 18.4698V20.4553C126.377 19.8748 125.705 19.4211 124.961 19.1257C124.217 18.8302 123.417 18.6999 122.617 18.7439C120.431 18.7439 117.971 20.0134 117.971 23.0838C117.971 26.0424 120.431 27.5077 122.617 27.5077C123.419 27.5352 124.217 27.3913 124.959 27.0856ZM126.839 22.4966C126.89 22.5972 126.917 22.7083 126.917 22.821V23.7662C126.918 23.9123 126.873 24.055 126.789 24.1744C126.412 24.6123 125.942 24.9612 125.414 25.1962C124.887 25.4312 124.313 25.5464 123.736 25.5335C122.108 25.5335 120.889 24.6218 120.889 23.1566C120.889 21.6913 122.108 20.7517 123.736 20.7517C124.359 20.7502 124.973 20.9102 125.517 21.2159C126.06 21.5217 126.516 21.9628 126.839 22.4966Z" fill="#191715"/>
<path d="M75.1945 31.6381C75.1934 31.5594 75.2157 31.482 75.2585 31.416C75.3013 31.3499 75.3627 31.2982 75.435 31.2672C75.5072 31.2363 75.587 31.2276 75.6642 31.2423C75.7413 31.257 75.8124 31.2943 75.8684 31.3497C75.9243 31.405 75.9626 31.4757 75.9783 31.5529C75.9941 31.6301 75.9866 31.7102 75.9568 31.7831C75.927 31.856 75.8762 31.9184 75.811 31.9622C75.7458 32.0061 75.669 32.0296 75.5905 32.0296C75.4864 32.0296 75.3866 31.9885 75.3125 31.9153C75.2384 31.842 75.196 31.7425 75.1945 31.6381Z" fill="#191715"/>
<path d="M75.2907 32.5799H75.9015V35.8873H75.2907V32.5799Z" fill="#191715"/>
<path fill-rule="evenodd" clip-rule="evenodd" d="M49.9291 34.9456H47.6667L47.2991 35.8873H46.5751L48.385 31.3488H49.2165L51.0264 35.8873H50.2968L49.9291 34.9456ZM47.893 34.3329H49.7312L48.8092 31.9161L47.893 34.3329Z" fill="#191715"/>
<path d="M54.0637 35.4391C53.9139 35.6035 53.7324 35.7355 53.5301 35.8272C53.3279 35.9189 53.1091 35.9683 52.8872 35.9724C52.7446 35.9924 52.5994 35.9788 52.463 35.9328C52.3265 35.8867 52.2026 35.8095 52.1011 35.7071C51.9996 35.6047 51.9232 35.48 51.8781 35.3429C51.8329 35.2059 51.8201 35.0601 51.8408 34.9172V32.5799H52.4517V34.713C52.4517 35.2803 52.7232 35.4221 53.1474 35.4221C53.3251 35.4183 53.4997 35.3745 53.6582 35.294C53.8168 35.2135 53.9554 35.0983 54.0637 34.9569V32.5799H54.6802V35.8873H54.0637V35.4391Z" fill="#191715"/>
<path d="M56.1168 33.1018V35.1555C56.0977 35.2655 56.1044 35.3785 56.1364 35.4856C56.1683 35.5926 56.2246 35.6907 56.3009 35.7722C56.3772 35.8536 56.4712 35.9161 56.5757 35.9548C56.6802 35.9935 56.7923 36.0073 56.903 35.9951C57.0194 36.004 57.1363 35.9895 57.2471 35.9525C57.3578 35.9155 57.46 35.8567 57.5478 35.7795L57.3894 35.3143C57.2994 35.3998 57.1796 35.4466 57.0557 35.4448C56.8408 35.4448 56.7333 35.2746 56.7333 35.042V33.1472H57.4007V32.5799H56.7333V31.6779H56.1168V32.5345H55.5512V33.1018H56.1168Z" fill="#191715"/>
<path fill-rule="evenodd" clip-rule="evenodd" d="M58.2208 34.2364C58.2341 33.9099 58.3425 33.5944 58.5325 33.3289C58.7225 33.0634 58.9858 32.8595 59.29 32.7424C59.5942 32.6252 59.926 32.6 60.2443 32.6698C60.5626 32.7396 60.8536 32.9014 61.0813 33.1351C61.3091 33.3689 61.4636 33.6644 61.5258 33.9852C61.588 34.306 61.5552 34.638 61.4315 34.9404C61.3077 35.2427 61.0984 35.5021 60.8294 35.6865C60.5604 35.8709 60.2434 35.9723 59.9176 35.9781C59.6892 35.9864 59.4615 35.9467 59.2493 35.8616C59.037 35.7765 58.8448 35.6478 58.6851 35.4838C58.5253 35.3198 58.4015 35.1241 58.3215 34.9093C58.2416 34.6945 58.2073 34.4653 58.2208 34.2364ZM60.9131 34.2364C60.8839 34.0398 60.799 33.8558 60.6685 33.7061C60.538 33.5565 60.3674 33.4476 60.1771 33.3923C59.9867 33.3371 59.7845 33.3378 59.5945 33.3944C59.4045 33.4511 59.2348 33.5612 59.1054 33.7118C58.976 33.8624 58.8924 34.0471 58.8646 34.2439C58.8368 34.4407 58.8659 34.6414 58.9484 34.8221C59.031 35.0028 59.1636 35.156 59.3304 35.2633C59.4972 35.3707 59.6912 35.4278 59.8894 35.4278C60.0365 35.4225 60.1809 35.3867 60.3136 35.3228C60.4463 35.2589 60.5644 35.1681 60.6605 35.0563C60.7567 34.9444 60.8287 34.8139 60.8722 34.6728C60.9156 34.5317 60.9296 34.3832 60.9131 34.2364Z" fill="#191715"/>
<path d="M66.1166 33.0281C66.5069 33.0281 66.6822 33.2834 66.6822 33.6691L66.6992 35.8703H67.31V33.4819C67.31 32.8182 66.982 32.4834 66.3768 32.4834C66.1522 32.486 65.9317 32.5437 65.7345 32.6515C65.5373 32.7593 65.3694 32.9139 65.2456 33.1018C65.1942 32.9143 65.0802 32.75 64.9228 32.6365C64.7653 32.5229 64.5738 32.4669 64.3802 32.4778C64.1724 32.4888 63.9696 32.5452 63.7859 32.6432C63.6022 32.7412 63.4421 32.8784 63.3169 33.0451V32.5799H62.7004V35.8703H63.3169V33.5103C63.4061 33.3746 63.5247 33.2609 63.6637 33.1774C63.8027 33.0939 63.9587 33.0429 64.12 33.0281C64.5216 33.0281 64.6856 33.2834 64.6856 33.6691V35.8703H65.2965V33.5046C65.3878 33.3676 65.5092 33.2534 65.6513 33.1707C65.7935 33.0881 65.9527 33.0393 66.1166 33.0281Z" fill="#191715"/>
<path fill-rule="evenodd" clip-rule="evenodd" d="M68.4073 34.2364C68.4206 33.9084 68.5299 33.5916 68.7213 33.3253C68.9128 33.0591 69.1782 32.8553 69.4843 32.7391C69.7904 32.623 70.1239 32.5998 70.4431 32.6723C70.7623 32.7448 71.0532 32.9099 71.2795 33.147C71.5059 33.3841 71.6578 33.6827 71.7162 34.0057C71.7746 34.3287 71.7371 34.6619 71.6082 34.9636C71.4793 35.2654 71.2647 35.5224 70.9913 35.7028C70.7178 35.8832 70.3975 35.9789 70.0702 35.9781C69.8443 35.9824 69.62 35.9398 69.4114 35.8528C69.2028 35.7659 69.0144 35.6365 68.8582 35.4728C68.7019 35.3092 68.5812 35.1148 68.5036 34.902C68.426 34.6892 68.3932 34.4626 68.4073 34.2364ZM71.0939 34.2364C71.0647 34.0398 70.9798 33.8558 70.8493 33.7061C70.7188 33.5565 70.5483 33.4476 70.3579 33.3923C70.1675 33.3371 69.9653 33.3378 69.7753 33.3944C69.5854 33.4511 69.4156 33.5612 69.2862 33.7118C69.1568 33.8624 69.0732 34.0471 69.0454 34.2439C69.0176 34.4407 69.0467 34.6414 69.1293 34.8221C69.2118 35.0028 69.3444 35.156 69.5112 35.2633C69.678 35.3707 69.872 35.4278 70.0702 35.4278C70.2173 35.4225 70.3618 35.3867 70.4945 35.3228C70.6272 35.2589 70.7453 35.1681 70.8414 35.0563C70.9375 34.9444 71.0095 34.8139 71.053 34.6728C71.0965 34.5317 71.1104 34.3832 71.0939 34.2364Z" fill="#191715"/>
<path d="M72.9717 33.1018V35.1555C72.9524 35.2661 72.9592 35.3796 72.9914 35.4871C73.0237 35.5947 73.0805 35.6931 73.1575 35.7747C73.2344 35.8563 73.3292 35.9187 73.4345 35.9569C73.5397 35.9952 73.6524 36.0083 73.7636 35.9951C73.8799 36.004 73.9969 35.9895 74.1076 35.9525C74.2183 35.9155 74.3206 35.8567 74.4083 35.7795L74.25 35.3143C74.16 35.3998 74.0402 35.4466 73.9163 35.4448C73.707 35.4448 73.5939 35.2746 73.5939 35.042V33.1472H74.25V32.5799H73.5826V31.6779H72.9717V32.5345H72.4061V33.1018H72.9717Z" fill="#191715"/>
<path d="M77.3891 32.5799H76.733L78.0961 35.8873H78.7578L80.1153 32.5799H79.4535L78.4241 35.1782L77.3891 32.5799Z" fill="#191715"/>
<path fill-rule="evenodd" clip-rule="evenodd" d="M82.408 32.5005C82.6311 32.5029 82.8514 32.5513 83.055 32.6429C83.261 32.7355 83.4455 32.8702 83.5967 33.0384C83.7479 33.2065 83.8624 33.4045 83.933 33.6196C84.0036 33.8347 84.0286 34.0621 84.0066 34.2875V34.4407H81.3992C81.4153 34.7266 81.543 34.9947 81.7547 35.1869C81.9664 35.3791 82.2451 35.4799 82.5304 35.4675C82.8927 35.4668 83.2409 35.3267 83.5032 35.0761L83.7917 35.4788C83.4329 35.8125 82.9571 35.9899 82.4682 35.9724C82.0091 35.9799 81.5659 35.8042 81.2361 35.484C80.9062 35.1638 80.7166 34.7252 80.7091 34.2648C80.7016 33.8044 80.8768 33.3598 81.1961 33.029C81.5145 32.699 81.9503 32.509 82.408 32.5005ZM81.3879 33.9925H83.4071C83.4071 33.8609 83.3809 33.7307 83.33 33.6094C83.2792 33.4881 83.2047 33.3783 83.1109 33.2863C83.0171 33.1944 82.9059 33.1221 82.7839 33.0739C82.6618 33.0256 82.5314 33.0023 82.4003 33.0054C82.137 33.0067 81.8845 33.1102 81.6958 33.2943C81.507 33.4783 81.3966 33.7286 81.3879 33.9925Z" fill="#191715"/>
<path d="M82.408 32.5005L82.4003 32.5005H82.4116L82.408 32.5005Z" fill="#191715"/>
<path d="M87.9149 35.8873V32.3813L90.4375 35.8873H91.0992V31.3488H90.4149V34.7527L87.9375 31.3488H87.2362V35.8873H87.9149Z" fill="#191715"/>
<path fill-rule="evenodd" clip-rule="evenodd" d="M93.899 32.5005C94.1247 32.5017 94.3477 32.5502 94.5538 32.6429C94.7598 32.7355 94.9442 32.8702 95.0954 33.0384C95.2466 33.2065 95.3611 33.4045 95.4317 33.6196C95.5023 33.8347 95.5273 34.0621 95.5053 34.2875V34.4407H92.8809C92.897 34.7266 93.0247 34.9947 93.2365 35.1869C93.4482 35.3791 93.7268 35.4799 94.0121 35.4675C94.3759 35.466 94.7256 35.3261 94.9906 35.0761L95.2734 35.4788C94.9147 35.8125 94.4388 35.9899 93.9499 35.9724C93.4909 35.9799 93.0477 35.8042 92.7178 35.484C92.3879 35.1638 92.1984 34.7252 92.1909 34.2648C92.1834 33.8044 92.3585 33.3598 92.6778 33.029C92.9971 32.6981 93.4343 32.508 93.8934 32.5005H93.899ZM94.9058 33.9925C94.9058 33.8609 94.8796 33.7307 94.8288 33.6094C94.7779 33.4881 94.7034 33.3783 94.6096 33.2863C94.5158 33.1944 94.4046 33.1221 94.2826 33.0739C94.1605 33.0256 94.0301 33.0023 93.899 33.0054C93.6329 33.0008 93.3759 33.1021 93.1841 33.287C92.9922 33.472 92.8812 33.7256 92.8753 33.9925H94.9058Z" fill="#191715"/>
<path d="M96.727 33.1018V35.1555C96.7079 35.2655 96.7146 35.3785 96.7466 35.4856C96.7785 35.5926 96.8348 35.6907 96.9111 35.7722C96.9873 35.8536 97.0814 35.9161 97.1859 35.9548C97.2904 35.9935 97.4025 36.0073 97.5132 35.9951C97.6296 36.004 97.7465 35.9895 97.8573 35.9525C97.968 35.9155 98.0702 35.8567 98.158 35.7795L97.9996 35.3143C97.9096 35.3998 97.7898 35.4466 97.6659 35.4448C97.451 35.4448 97.3435 35.2746 97.3435 35.042V33.1472H98.0109V32.5799H97.3435V31.6779H96.727V32.5345H96.1614V33.1018H96.727Z" fill="#191715"/>
<path d="M101.082 33.3514L100.268 35.8873H99.6342L98.5935 32.5799H99.2383L99.9848 35.1044L100.811 32.5799H101.348L102.174 35.1044L102.949 32.5799H103.593L102.553 35.8873H101.919L101.082 33.3514Z" fill="#191715"/>
<path fill-rule="evenodd" clip-rule="evenodd" d="M104.549 33.302C104.358 33.5766 104.252 33.9016 104.244 34.2364C104.23 34.4653 104.265 34.6945 104.345 34.9093C104.424 35.1241 104.548 35.3198 104.708 35.4838C104.868 35.6478 105.06 35.7765 105.272 35.8616C105.485 35.9467 105.712 35.9864 105.941 35.9781C106.275 35.978 106.601 35.8791 106.879 35.6938C107.157 35.5085 107.375 35.245 107.504 34.9363C107.634 34.6276 107.67 34.2875 107.607 33.9584C107.545 33.6294 107.387 33.3262 107.154 33.0867C106.92 32.8471 106.622 32.682 106.295 32.6119C105.969 32.5418 105.629 32.5699 105.318 32.6927C105.008 32.8154 104.74 33.0273 104.549 33.302ZM106.691 33.7061C106.822 33.8558 106.907 34.0398 106.936 34.2364C106.953 34.3832 106.939 34.5317 106.895 34.6728C106.852 34.8139 106.78 34.9444 106.684 35.0563C106.587 35.1681 106.469 35.2589 106.337 35.3228C106.204 35.3867 106.06 35.4225 105.912 35.4278C105.714 35.4278 105.52 35.3707 105.353 35.2633C105.187 35.156 105.054 35.0028 104.971 34.8221C104.889 34.6414 104.86 34.4407 104.888 34.2439C104.915 34.0471 104.999 33.8624 105.128 33.7118C105.258 33.5612 105.428 33.4511 105.618 33.3944C105.807 33.3378 106.01 33.3371 106.2 33.3923C106.39 33.4476 106.561 33.5565 106.691 33.7061Z" fill="#191715"/>
<path d="M108.701 32.5799H109.312V33.1018C109.438 32.9321 109.6 32.793 109.787 32.6948C109.974 32.5966 110.181 32.5418 110.392 32.5345V33.1585C110.32 33.1517 110.248 33.1517 110.177 33.1585C110.006 33.1703 109.84 33.2195 109.691 33.3029C109.541 33.3862 109.412 33.5016 109.312 33.6408V35.91H108.701V32.5799Z" fill="#191715"/>
<path d="M111.959 34.9739L112.462 34.4634L113.559 35.8419H114.34L112.903 34.0379L114.323 32.5345H113.554L111.959 34.2364V31.3488H111.348V35.8873H111.959V34.9739Z" fill="#191715"/>
</svg>
