<svg width="2432" height="3659" viewBox="0 0 2432 3659" fill="red" xmlns="http://www.w3.org/2000/svg">
<g opacity="0.2">
<path d="M1485.58 1065.55V842.995C1485.77 836.241 1484.1 829.564 1480.74 823.703C1477.38 817.842 1472.46 813.025 1466.53 809.785C1460.6 806.545 1453.89 805.008 1447.14 805.345C1440.39 805.682 1433.87 807.879 1428.29 811.693L544.962 1422.7C522.099 1438.51 495.348 1447.77 467.604 1449.47C439.859 1451.18 412.176 1445.26 387.55 1432.37C362.924 1419.48 342.292 1400.1 327.886 1376.32C313.48 1352.55 305.849 1325.29 305.817 1297.49V1002.95C306.004 953.613 318.148 905.06 341.208 861.448C364.268 817.835 397.557 780.463 438.223 752.533L700.844 570.984C721.119 557.041 737.66 538.332 749.012 516.5C760.365 494.669 766.181 470.383 765.951 445.777V37.9171C766.192 31.1127 764.531 24.376 761.155 18.4634C757.779 12.5508 752.821 7.69633 746.839 4.44513C740.857 1.19394 734.087 -0.325259 727.289 0.0581134C720.491 0.441486 713.935 2.71225 708.356 6.61544L524.303 134.952C504.105 148.972 487.623 167.698 476.28 189.512C464.937 211.325 459.073 235.572 459.195 260.159V367.21L233.824 523.718C162.024 573.295 103.268 639.487 62.5565 716.659C21.845 793.831 0.383971 879.698 0.00054441 966.949V1296.87C-0.12853 1380.65 22.6965 1462.86 65.9974 1534.58C109.298 1606.31 171.42 1664.79 245.618 1703.7C319.816 1742.61 403.255 1760.44 486.874 1755.27C570.494 1750.1 651.099 1722.12 719.938 1674.37L1420.47 1190.76C1440.67 1176.74 1457.15 1158.01 1468.49 1136.2C1479.83 1114.38 1485.7 1090.14 1485.58 1065.55Z" fill="white"/>
<path d="M1316.3 387.609L615.139 871.532C594.865 885.498 578.307 904.204 566.906 926.025C555.505 947.845 549.605 972.12 549.719 996.739V1219.29C549.593 1226.05 551.326 1232.72 554.727 1238.56C558.129 1244.41 563.07 1249.2 569.011 1252.43C574.952 1255.66 581.666 1257.2 588.42 1256.87C595.174 1256.55 601.71 1254.38 607.314 1250.59L1490.65 639.274C1513.51 623.464 1540.26 614.205 1568 612.501C1595.75 610.796 1623.43 616.711 1648.06 629.604C1672.68 642.497 1693.32 661.878 1707.72 685.651C1722.13 709.424 1729.76 736.684 1729.79 764.481V1057.46C1729.67 1106.74 1717.63 1155.26 1694.68 1198.87C1671.73 1242.47 1638.56 1279.88 1598.01 1307.88L1363.25 1470.02L1336.33 1488.49C1316.09 1502.47 1299.58 1521.19 1288.23 1543.01C1276.89 1564.83 1271.05 1589.1 1271.22 1613.69V2022.18C1270.98 2028.98 1272.64 2035.72 1276.02 2041.63C1279.39 2047.55 1284.35 2052.4 1290.33 2055.65C1296.32 2058.9 1303.09 2060.42 1309.88 2060.04C1316.68 2059.66 1323.24 2057.38 1328.82 2053.48L1513.18 1926.4C1533.4 1912.4 1549.9 1893.67 1561.24 1871.86C1572.59 1850.04 1578.44 1825.78 1578.29 1801.19V1695.39L1803.04 1538.88C1875.16 1489.11 1934.12 1422.58 1974.85 1344.99C2015.58 1267.4 2036.86 1181.09 2036.86 1093.46V764.794C2037.01 680.939 2014.17 598.649 1970.81 526.872C1927.46 455.095 1865.25 396.58 1790.96 357.692C1716.67 318.803 1633.13 301.03 1549.45 306.305C1465.76 311.579 1385.12 339.701 1316.3 387.609Z" fill="white"/>
<path d="M1880.58 2663.65V2441.09C1880.77 2434.34 1879.1 2427.66 1875.74 2421.8C1872.38 2415.94 1867.46 2411.12 1861.53 2407.88C1855.6 2404.64 1848.89 2403.1 1842.14 2403.44C1835.39 2403.78 1828.87 2405.98 1823.29 2409.79L939.962 3020.8C917.099 3036.61 890.349 3045.87 862.604 3047.57C834.859 3049.28 807.176 3043.36 782.55 3030.47C757.924 3017.57 737.292 2998.19 722.886 2974.42C708.48 2950.65 700.849 2923.39 700.817 2895.59V2601.04C701.005 2551.71 713.148 2503.16 736.208 2459.54C759.268 2415.93 792.557 2378.56 833.223 2350.63L1095.84 2169.08C1116.12 2155.14 1132.66 2136.43 1144.01 2114.6C1155.36 2092.76 1161.18 2068.48 1160.95 2043.87V1636.01C1161.19 1629.21 1159.53 1622.47 1156.15 1616.56C1152.78 1610.65 1147.82 1605.79 1141.84 1602.54C1135.86 1599.29 1129.09 1597.77 1122.29 1598.15C1115.49 1598.54 1108.94 1600.81 1103.36 1604.71L919.303 1733.05C899.105 1747.07 882.623 1765.79 871.28 1787.61C859.937 1809.42 854.073 1833.67 854.195 1858.25V1965.31L628.824 2121.81C557.024 2171.39 498.268 2237.58 457.557 2314.76C416.845 2391.93 395.384 2477.79 395.001 2565.05V2894.96C394.871 2978.74 417.696 3060.96 460.997 3132.68C504.298 3204.4 566.42 3262.89 640.618 3301.8C714.816 3340.7 798.255 3358.54 881.874 3353.37C965.494 3348.19 1046.1 3320.21 1114.94 3272.46L1815.47 2788.85C1835.67 2774.83 1852.15 2756.11 1863.49 2734.29C1874.83 2712.48 1880.7 2688.23 1880.58 2663.65Z" fill="white"/>
<path d="M1711.3 1985.71L1010.14 2469.63C989.865 2483.59 973.307 2502.3 961.906 2524.12C950.505 2545.94 944.605 2570.22 944.719 2594.83V2817.39C944.593 2824.15 946.326 2830.82 949.727 2836.66C953.129 2842.5 958.07 2847.3 964.011 2850.53C969.952 2853.76 976.666 2855.29 983.42 2854.97C990.174 2854.65 996.71 2852.47 1002.31 2848.69L1885.65 2237.37C1908.51 2221.56 1935.26 2212.3 1963 2210.6C1990.75 2208.89 2018.43 2214.81 2043.06 2227.7C2067.68 2240.59 2088.32 2259.97 2102.72 2283.75C2117.13 2307.52 2124.76 2334.78 2124.79 2362.58V2655.56C2124.67 2704.84 2112.63 2753.35 2089.68 2796.96C2066.73 2840.57 2033.56 2877.97 1993.01 2905.97L1758.25 3068.12L1731.33 3086.58C1711.09 3100.57 1694.58 3119.28 1683.23 3141.1C1671.89 3162.93 1666.05 3187.19 1666.22 3211.79V3620.28C1665.98 3627.08 1667.64 3633.82 1671.02 3639.73C1674.39 3645.64 1679.35 3650.5 1685.33 3653.75C1691.32 3657 1698.09 3658.52 1704.88 3658.13C1711.68 3657.75 1718.24 3655.48 1723.82 3651.58L1908.18 3524.49C1928.4 3510.49 1944.9 3491.77 1956.24 3469.95C1967.59 3448.13 1973.44 3423.88 1973.29 3399.29V3293.49L2198.04 3136.98C2270.16 3087.21 2329.12 3020.67 2369.85 2943.09C2410.58 2865.5 2431.86 2779.18 2431.86 2691.56V2362.89C2432.01 2279.04 2409.17 2196.74 2365.81 2124.97C2322.46 2053.19 2260.25 1994.68 2185.96 1955.79C2111.67 1916.9 2028.13 1899.13 1944.45 1904.4C1860.76 1909.68 1780.12 1937.8 1711.3 1985.71Z" fill="white"/>
</g>
</svg>
